<?xml version="1.0" encoding="utf-8"?>
<!-- Generator: Adobe Illustrator 16.0.0, SVG Export Plug-In . SVG Version: 6.00 Build 0)  -->
<!DOCTYPE svg PUBLIC "-//W3C//DTD SVG 1.1//EN" "http://www.w3.org/Graphics/SVG/1.1/DTD/svg11.dtd">
<svg version="1.1" id="icons" xmlns="http://www.w3.org/2000/svg" xmlns:xlink="http://www.w3.org/1999/xlink" x="0px" y="0px"
	 width="64px" height="64px" viewBox="0 0 64 64" enable-background="new 0 0 64 64" xml:space="preserve">
<g>
	<path d="M2.999,26.358v25.655c0,1.379,1.121,2.5,2.5,2.5s2.5-1.121,2.5-2.5V26.358c1.721-0.447,3-2,3-3.858V10.498
		c0-0.553-0.447-1-1-1s-1,0.447-1,1v8h-1v-8c0-0.553-0.447-1-1-1s-1,0.447-1,1v8h-1v-8c0-0.553-0.447-1-1-1s-1,0.447-1,1v8h-1v-8
		c0-0.553-0.447-1-1-1s-1,0.447-1,1V22.5C-0.001,24.358,1.278,25.911,2.999,26.358z M5.999,52.014c0,0.275-0.225,0.5-0.5,0.5
		s-0.5-0.225-0.5-0.5V26.5h1V52.014z M1.999,20.498h7V22.5c0,1.103-0.897,2-2,2h-3c-1.103,0-2-0.897-2-2V20.498z"/>
	<path d="M56.998,9.488c-0.553,0-1,0.447-1,1c0,0.006,0.003,0.01,0.003,0.015c0,0.001,0,0.001,0,0.001v41.51
		c0,1.379,1.121,2.5,2.5,2.5s2.5-1.121,2.5-2.5V34.508h2c0.553,0,1-0.447,1-1V16.49C64.001,12.629,60.859,9.488,56.998,9.488z
		 M59.001,52.014c0,0.275-0.225,0.5-0.5,0.5s-0.5-0.225-0.5-0.5V34.508h1V52.014z M62.001,32.508h-4V11.59
		c2.279,0.466,4,2.486,4,4.9V32.508z"/>
	<path d="M32.499,9.486c-12.406,0-22.5,10.094-22.5,22.5s10.094,22.5,22.5,22.5s22.5-10.094,22.5-22.5S44.905,9.486,32.499,9.486z
		 M32.499,52.486c-11.304,0-20.5-9.196-20.5-20.5s9.196-20.5,20.5-20.5s20.5,9.196,20.5,20.5S43.803,52.486,32.499,52.486z"/>
	<path d="M32.499,16.486c-8.547,0-15.5,6.953-15.5,15.5s6.953,15.5,15.5,15.5s15.5-6.953,15.5-15.5S41.046,16.486,32.499,16.486z
		 M32.499,45.486c-7.444,0-13.5-6.056-13.5-13.5s6.056-13.5,13.5-13.5s13.5,6.056,13.5,13.5S39.943,45.486,32.499,45.486z"/>
</g>
</svg>
