<?xml version="1.0" encoding="iso-8859-1"?>
<!-- Generator: Adobe Illustrator 19.0.1, SVG Export Plug-In . SVG Version: 6.00 Build 0)  -->
<svg version="1.1" xmlns="http://www.w3.org/2000/svg" xmlns:xlink="http://www.w3.org/1999/xlink" x="0px" y="0px"
	 viewBox="0 0 128 128" style="enable-background:new 0 0 128 128;" xml:space="preserve">
<g id="_x34_">
	<path id="icon_3_" style="fill:#161616;" d="M22.822,66.956l-1.587,5.379l14.255,4.213l1.601-5.379L22.822,66.956z M50.925,29.514
		c-5.393,0-9.789,4.396-9.789,9.789c0,5.407,4.396,9.789,9.789,9.789c5.407,0,9.789-4.382,9.789-9.789
		C60.714,33.91,56.332,29.514,50.925,29.514z M50.925,46.283c-3.848,0-6.98-3.132-6.98-6.98c0-3.848,3.132-6.98,6.98-6.98
		c3.848,0,6.98,3.132,6.98,6.98C57.905,43.151,54.773,46.283,50.925,46.283z M30.673,46.887c-4.312,0-7.823,3.511-7.823,7.823
		s3.511,7.809,7.823,7.809s7.823-3.497,7.823-7.809S34.984,46.887,30.673,46.887z M30.673,59.709c-2.767,0-5.014-2.247-5.014-5
		c0-2.767,2.247-5.014,5.014-5.014c2.767,0,5.014,2.247,5.014,5.014C35.687,57.462,33.44,59.709,30.673,59.709z M45.883,63.431
		c-3.104,0-5.618,2.528-5.618,5.618c0,3.09,2.514,5.618,5.618,5.618c3.09,0,5.604-2.528,5.604-5.618
		C51.486,65.959,48.973,63.431,45.883,63.431z M45.883,71.858c-1.559,0-2.809-1.264-2.809-2.809c0-1.545,1.25-2.809,2.809-2.809
		c1.545,0,2.795,1.264,2.795,2.809C48.678,70.594,47.428,71.858,45.883,71.858z M84.42,76.071c-1.095-2.205-2.977-3.848-5.309-4.635
		c-1.798-0.618-3.722-0.646-5.547-0.098l-3.062,1.32l6.39,16.727l1.18-0.239c0.674-0.14,1.362-0.379,2.065-0.688l0.014-0.014
		c2.261-1.095,3.961-2.991,4.747-5.337C85.684,80.776,85.516,78.276,84.42,76.071z M82.244,82.209
		c-0.548,1.615-1.728,2.935-3.315,3.708c-0.098,0.042-0.197,0.084-0.295,0.126L74.07,74.161l0.379-0.154
		c1.236-0.365,2.542-0.323,3.764,0.084c1.615,0.548,2.921,1.699,3.694,3.23C82.665,78.852,82.791,80.593,82.244,82.209z
		 M61.57,76.38c-4.312,0-7.823,3.511-7.823,7.823s3.511,7.809,7.823,7.809s7.823-3.497,7.823-7.809S65.882,76.38,61.57,76.38z
		 M61.57,89.203c-2.767,0-5.014-2.247-5.014-5c0-2.767,2.247-5.014,5.014-5.014c2.767,0,5.014,2.247,5.014,5.014
		C66.584,86.956,64.337,89.203,61.57,89.203z M36.291,79.189c-4.312,0-7.823,3.511-7.823,7.823s3.511,7.809,7.823,7.809
		s7.823-3.497,7.823-7.809S40.602,79.189,36.291,79.189z M36.291,92.011c-2.767,0-5.014-2.247-5.014-5
		c0-2.767,2.247-5.014,5.014-5.014c2.767,0,5.014,2.247,5.014,5.014C41.304,89.764,39.057,92.011,36.291,92.011z M59.801,25.132
		c-0.716-0.098-1.418-0.169-2.135-0.211c-0.379-0.042-0.73,0.253-0.758,0.646c-0.028,0.379,0.267,0.716,0.66,0.744
		c0.674,0.056,1.362,0.126,2.05,0.211c0.028,0,0.056,0.014,0.098,0.014c0.337,0,0.646-0.267,0.688-0.618
		C60.461,25.54,60.18,25.188,59.801,25.132z M54.014,24.823c-21.628,0-39.24,17.598-39.24,39.226c0,0.393,0.323,0.702,0.702,0.702
		c0.393,0,0.702-0.309,0.702-0.702c0-20.856,16.98-37.821,37.835-37.821c0.379,0,0.702-0.309,0.702-0.702
		C54.717,25.132,54.394,24.823,54.014,24.823z M100.501,62.42c0-0.14,0-0.295-0.014-0.435l-2.809,0.183
		c0.014,0.126,0.014,0.239,0.014,0.365c0.042,0.66,0.056,1.32,0.056,1.98c0,11.109-4.199,21.699-11.839,29.816
		c-2.149,2.303-4.593,4.396-7.261,6.222c-7.233,4.93-15.702,7.542-24.479,7.542c-24.044,0-43.608-19.55-43.608-43.58
		c0-24.044,19.564-43.608,43.608-43.608c8.904,0,17.443,2.668,24.746,7.753c0.056,0.028,0.098,0.056,0.154,0.098l1.615-2.303
		c-0.014-0.014-0.042-0.028-0.056-0.042c-7.795-5.435-16.952-8.314-26.46-8.314c-25.589,0-46.417,20.828-46.417,46.417
		c0,25.575,20.828,46.388,46.417,46.388c9.354,0,18.356-2.781,26.052-8.033c2.837-1.938,5.449-4.157,7.738-6.615
		c8.118-8.637,12.598-19.915,12.598-31.74C100.557,63.81,100.543,63.108,100.501,62.42z M100.501,62.42l-2.809,0.112
		c0.042,0.66,0.056,1.32,0.056,1.98c0,11.109-4.199,21.699-11.839,29.816c-2.149,2.303-4.593,4.396-7.261,6.222
		c-7.233,4.93-15.702,7.542-24.479,7.542c-24.044,0-43.608-19.55-43.608-43.58c0-24.044,19.564-43.608,43.608-43.608
		c8.904,0,17.443,2.668,24.746,7.753l1.713-2.247c-7.795-5.435-16.952-8.314-26.46-8.314c-25.589,0-46.417,20.828-46.417,46.417
		c0,25.575,20.828,46.388,46.417,46.388c9.354,0,18.356-2.781,26.052-8.033c2.837-1.938,5.449-4.157,7.738-6.615
		c8.118-8.637,12.598-19.915,12.598-31.74C100.557,63.81,100.543,63.108,100.501,62.42z M73.564,71.338l-3.062,1.32l6.39,16.727
		l1.18-0.239c0.674-0.14,1.362-0.379,2.065-0.688l0.014-0.014c2.261-1.095,3.961-2.991,4.747-5.337
		c0.786-2.331,0.618-4.831-0.477-7.036c-1.095-2.205-2.977-3.848-5.309-4.635C77.314,70.818,75.39,70.79,73.564,71.338z
		 M81.906,77.321c0.758,1.531,0.885,3.272,0.337,4.887c-0.548,1.615-1.728,2.935-3.315,3.708c-0.098,0.042-0.197,0.084-0.295,0.126
		L74.07,74.161l0.379-0.154c1.236-0.365,2.542-0.323,3.764,0.084C79.828,74.639,81.134,75.79,81.906,77.321z M61.57,92.011
		c4.312,0,7.823-3.497,7.823-7.809s-3.511-7.823-7.823-7.823s-7.823,3.511-7.823,7.823S57.259,92.011,61.57,92.011z M61.57,79.189
		c2.767,0,5.014,2.247,5.014,5.014c0,2.753-2.247,5-5.014,5c-2.767,0-5.014-2.247-5.014-5C56.556,81.436,58.804,79.189,61.57,79.189
		z M59.618,26.523c0.028,0,0.056,0.014,0.098,0.014c0.337,0,0.646-0.267,0.688-0.618c0.056-0.379-0.225-0.73-0.604-0.786
		c-0.716-0.098-1.418-0.169-2.135-0.211c-0.379-0.042-0.73,0.253-0.758,0.646c-0.028,0.379,0.267,0.716,0.66,0.744
		C58.242,26.368,58.93,26.438,59.618,26.523z M60.714,39.303c0-5.393-4.382-9.789-9.789-9.789c-5.393,0-9.789,4.396-9.789,9.789
		c0,5.407,4.396,9.789,9.789,9.789C56.332,49.092,60.714,44.71,60.714,39.303z M50.925,46.283c-3.848,0-6.98-3.132-6.98-6.98
		c0-3.848,3.132-6.98,6.98-6.98c3.848,0,6.98,3.132,6.98,6.98C57.905,43.151,54.773,46.283,50.925,46.283z M54.717,25.526
		c0-0.393-0.323-0.702-0.702-0.702c-21.628,0-39.24,17.598-39.24,39.226c0,0.393,0.323,0.702,0.702,0.702
		c0.393,0,0.702-0.309,0.702-0.702c0-20.856,16.98-37.821,37.835-37.821C54.394,26.228,54.717,25.919,54.717,25.526z M51.486,69.049
		c0-3.09-2.514-5.618-5.604-5.618c-3.104,0-5.618,2.528-5.618,5.618c0,3.09,2.514,5.618,5.618,5.618
		C48.973,74.667,51.486,72.139,51.486,69.049z M43.074,69.049c0-1.545,1.25-2.809,2.809-2.809c1.545,0,2.795,1.264,2.795,2.809
		c0,1.545-1.25,2.809-2.795,2.809C44.324,71.858,43.074,70.594,43.074,69.049z M36.291,94.82c4.312,0,7.823-3.497,7.823-7.809
		s-3.511-7.823-7.823-7.823s-7.823,3.511-7.823,7.823S31.979,94.82,36.291,94.82z M36.291,81.998c2.767,0,5.014,2.247,5.014,5.014
		c0,2.753-2.247,5-5.014,5c-2.767,0-5.014-2.247-5.014-5C31.277,84.245,33.524,81.998,36.291,81.998z M37.091,71.17l-14.269-4.213
		l-1.587,5.379l14.255,4.213L37.091,71.17z M22.85,54.71c0,4.312,3.511,7.809,7.823,7.809s7.823-3.497,7.823-7.809
		s-3.511-7.823-7.823-7.823S22.85,50.398,22.85,54.71z M35.687,54.71c0,2.753-2.247,5-5.014,5c-2.767,0-5.014-2.247-5.014-5
		c0-2.767,2.247-5.014,5.014-5.014C33.44,49.696,35.687,51.943,35.687,54.71z M108.254,61.985l-0.365-4.073l-47.287,1.91
		l22.246-29.353l5.702-7.556l-3.371-2.416c-9.101-6.418-19.831-9.817-31.01-9.817C24.297,10.681,0,34.977,0,64.85
		c0,29.858,24.297,54.155,54.169,54.155c29.858,0,54.155-24.297,54.155-54.155C108.324,63.895,108.296,62.94,108.254,61.985z
		 M51.838,64.4l45.855-1.868c0.042,0.66,0.056,1.32,0.056,1.98c0,11.109-4.199,21.699-11.839,29.816
		c-2.149,2.303-4.593,4.396-7.261,6.222c-7.233,4.93-15.702,7.542-24.479,7.542c-24.044,0-43.608-19.55-43.608-43.58
		c0-24.044,19.564-43.608,43.608-43.608c8.904,0,17.443,2.668,24.746,7.753L51.838,64.4z M54.169,114.791
		c-27.555,0-49.956-22.401-49.956-49.942c0-27.541,22.401-49.956,49.956-49.956c10.252,0,20.069,3.09,28.412,8.932l-1.952,2.584
		c-7.795-5.435-16.952-8.314-26.46-8.314c-25.589,0-46.417,20.828-46.417,46.417c0,25.575,20.828,46.388,46.417,46.388
		c9.354,0,18.356-2.781,26.052-8.033c2.837-1.938,5.449-4.157,7.738-6.615c8.118-8.637,12.598-19.915,12.598-31.74
		c0-0.702-0.014-1.404-0.056-2.093l3.553-0.14c0.028,0.857,0.056,1.713,0.056,2.57C104.111,92.391,81.71,114.791,54.169,114.791z
		 M78.072,89.146c0.674-0.14,1.362-0.379,2.065-0.688l0.014-0.014c2.261-1.095,3.961-2.991,4.747-5.337
		c0.786-2.331,0.618-4.831-0.477-7.036c-1.095-2.205-2.977-3.848-5.309-4.635c-1.798-0.618-3.722-0.646-5.547-0.098l-3.062,1.32
		l6.39,16.727L78.072,89.146z M74.449,74.007c1.236-0.365,2.542-0.323,3.764,0.084c1.615,0.548,2.921,1.699,3.694,3.23
		c0.758,1.531,0.885,3.272,0.337,4.887c-0.548,1.615-1.728,2.935-3.315,3.708c-0.098,0.042-0.197,0.084-0.295,0.126L74.07,74.161
		L74.449,74.007z M61.57,92.011c4.312,0,7.823-3.497,7.823-7.809s-3.511-7.823-7.823-7.823s-7.823,3.511-7.823,7.823
		S57.259,92.011,61.57,92.011z M61.57,79.189c2.767,0,5.014,2.247,5.014,5.014c0,2.753-2.247,5-5.014,5
		c-2.767,0-5.014-2.247-5.014-5C56.556,81.436,58.804,79.189,61.57,79.189z M57.568,26.312c0.674,0.056,1.362,0.126,2.05,0.211
		c0.028,0,0.056,0.014,0.098,0.014c0.337,0,0.646-0.267,0.688-0.618c0.056-0.379-0.225-0.73-0.604-0.786
		c-0.716-0.098-1.418-0.169-2.135-0.211c-0.379-0.042-0.73,0.253-0.758,0.646C56.88,25.947,57.174,26.284,57.568,26.312z
		 M50.925,29.514c-5.393,0-9.789,4.396-9.789,9.789c0,5.407,4.396,9.789,9.789,9.789c5.407,0,9.789-4.382,9.789-9.789
		C60.714,33.91,56.332,29.514,50.925,29.514z M50.925,46.283c-3.848,0-6.98-3.132-6.98-6.98c0-3.848,3.132-6.98,6.98-6.98
		c3.848,0,6.98,3.132,6.98,6.98C57.905,43.151,54.773,46.283,50.925,46.283z M14.775,64.049c0,0.393,0.323,0.702,0.702,0.702
		c0.393,0,0.702-0.309,0.702-0.702c0-20.856,16.98-37.821,37.835-37.821c0.379,0,0.702-0.309,0.702-0.702
		c0-0.393-0.323-0.702-0.702-0.702C32.386,24.823,14.775,42.421,14.775,64.049z M45.883,63.431c-3.104,0-5.618,2.528-5.618,5.618
		c0,3.09,2.514,5.618,5.618,5.618c3.09,0,5.604-2.528,5.604-5.618C51.486,65.959,48.973,63.431,45.883,63.431z M45.883,71.858
		c-1.559,0-2.809-1.264-2.809-2.809c0-1.545,1.25-2.809,2.809-2.809c1.545,0,2.795,1.264,2.795,2.809
		C48.678,70.594,47.428,71.858,45.883,71.858z M36.291,79.189c-4.312,0-7.823,3.511-7.823,7.823s3.511,7.809,7.823,7.809
		s7.823-3.497,7.823-7.809S40.602,79.189,36.291,79.189z M36.291,92.011c-2.767,0-5.014-2.247-5.014-5
		c0-2.767,2.247-5.014,5.014-5.014c2.767,0,5.014,2.247,5.014,5.014C41.304,89.764,39.057,92.011,36.291,92.011z M37.091,71.17
		l-14.269-4.213l-1.587,5.379l14.255,4.213L37.091,71.17z M38.495,54.71c0-4.312-3.511-7.823-7.823-7.823s-7.823,3.511-7.823,7.823
		s3.511,7.809,7.823,7.809S38.495,59.021,38.495,54.71z M25.659,54.71c0-2.767,2.247-5.014,5.014-5.014
		c2.767,0,5.014,2.247,5.014,5.014c0,2.753-2.247,5-5.014,5C27.906,59.709,25.659,57.462,25.659,54.71z M99.546,30.048
		c-3.806,0-6.91,3.104-6.91,6.91c0,3.806,3.104,6.91,6.91,6.91c3.806,0,6.91-3.104,6.91-6.91
		C106.456,33.152,103.352,30.048,99.546,30.048z M99.546,30.048c-3.806,0-6.91,3.104-6.91,6.91c0,3.806,3.104,6.91,6.91,6.91
		c3.806,0,6.91-3.104,6.91-6.91C106.456,33.152,103.352,30.048,99.546,30.048z M99.546,30.048c-3.806,0-6.91,3.104-6.91,6.91
		c0,3.806,3.104,6.91,6.91,6.91c3.806,0,6.91-3.104,6.91-6.91C106.456,33.152,103.352,30.048,99.546,30.048z M127.747,50.89
		c-0.042-0.463-0.084-0.913-0.126-1.362c-1.362-15.056-9.101-28.959-21.207-38.158c-0.548-0.435-1.109-0.829-1.671-1.222
		l-1.657-1.152L68.564,55.524l49.871-1.404L128,53.741L127.747,50.89z M91.766,50.637c0.548-0.716,0.871-1.615,0.871-2.57
		c0-2.317-1.882-4.199-4.199-4.199c-2.331,0-4.213,1.882-4.213,4.199c0,1.053,0.393,2.022,1.039,2.767l-8.174,0.239l23.187-31.445
		c9.297,7.612,15.491,18.44,17.317,30.251L91.766,50.637z M120.43,49.794c-1.882-12.654-8.483-24.269-18.454-32.414l1.98-2.598
		c11.067,8.455,18.145,21.165,19.437,34.928L120.43,49.794z"/>
</g>
<g id="Layer_1">
</g>
</svg>
