<?xml version="1.0" standalone="no"?>
<!DOCTYPE svg PUBLIC "-//W3C//DTD SVG 20010904//EN"
 "http://www.w3.org/TR/2001/REC-SVG-20010904/DTD/svg10.dtd">
<svg version="1.0" xmlns="http://www.w3.org/2000/svg"
 width="1200.000000pt" height="1200.000000pt" viewBox="0 0 1200.000000 1200.000000"
 preserveAspectRatio="xMidYMid meet">
<metadata>
Created by potrace 1.14, written by Peter Selinger 2001-2017
</metadata>
<g transform="translate(0.000000,1200.000000) scale(0.100000,-0.100000)"
fill="#000000" stroke="none">
<path d="M9755 11853 c-11 -2 -27 -7 -35 -10 -8 -3 -20 -5 -27 -4 -7 1 -44
-12 -83 -28 -38 -17 -70 -27 -70 -23 0 4 -4 2 -8 -4 -4 -5 -25 -21 -47 -34
-22 -13 -43 -29 -47 -34 -4 -6 -8 -8 -8 -3 0 8 -10 0 -90 -76 -30 -29 -70 -72
-89 -96 -61 -78 -141 -250 -133 -283 1 -5 -2 -8 -6 -8 -4 0 -8 -10 -9 -22 0
-13 -3 -36 -7 -53 -15 -70 -6 -218 19 -305 6 -20 44 -115 70 -175 13 -27 41
-97 65 -155 23 -58 46 -114 50 -125 5 -11 19 -45 30 -75 12 -30 26 -64 30 -75
11 -28 23 -59 24 -65 1 -3 7 -15 14 -27 7 -13 9 -23 5 -23 -4 0 -2 -5 5 -12 7
-7 12 -18 12 -24 0 -7 5 -25 11 -41 6 -15 10 -30 11 -33 0 -3 4 -10 8 -15 5
-6 11 -23 14 -38 2 -15 8 -32 13 -39 4 -7 8 -17 10 -23 2 -10 20 -65 34 -100
18 -47 22 -61 25 -73 1 -8 6 -21 10 -30 4 -9 8 -19 8 -22 4 -19 30 -98 37
-113 5 -10 7 -22 4 -27 -4 -6 -1 -10 4 -10 6 0 10 -3 9 -7 -2 -12 14 -67 23
-78 4 -5 7 -13 7 -18 1 -15 15 -72 20 -82 4 -5 7 -14 7 -20 1 -5 7 -30 15 -55
21 -70 22 -74 24 -97 0 -13 4 -23 7 -23 4 0 10 -15 14 -32 4 -18 9 -37 10 -43
2 -5 5 -19 8 -30 2 -11 7 -27 10 -35 4 -8 8 -27 11 -42 2 -14 10 -36 16 -48 8
-14 8 -20 1 -16 -6 4 -4 -9 4 -28 9 -20 17 -50 19 -68 3 -18 6 -33 7 -33 1 0
3 -9 5 -20 4 -26 12 -60 14 -60 2 0 10 -37 12 -62 1 -13 6 -23 11 -23 5 0 7
-11 5 -25 -3 -14 -1 -25 5 -25 5 0 7 -13 5 -30 -3 -16 -1 -30 3 -30 6 0 12
-27 25 -110 2 -8 5 -26 9 -40 10 -43 26 -124 31 -155 2 -16 6 -41 9 -55 3 -14
8 -41 11 -60 3 -19 8 -48 10 -65 3 -16 8 -42 10 -57 2 -16 6 -43 9 -60 3 -18
8 -51 11 -73 3 -22 7 -51 10 -65 3 -14 7 -45 9 -70 3 -25 7 -55 9 -68 3 -13 8
-53 12 -90 3 -37 8 -80 9 -97 4 -34 14 -129 20 -190 2 -22 4 -40 5 -40 1 0 3
-36 6 -80 2 -44 7 -116 9 -160 10 -169 15 -369 14 -605 0 -291 -2 -336 -11
-346 -4 -3 -3 -14 2 -24 5 -10 7 -20 3 -23 -3 -3 -6 -39 -7 -79 -1 -41 -4 -78
-7 -83 -2 -6 -4 -36 -4 -67 0 -32 -2 -58 -5 -58 -3 0 -6 -24 -7 -53 -2 -65
-16 -197 -29 -281 -3 -23 -8 -52 -9 -66 -4 -29 -14 -103 -20 -140 -6 -41 -16
-101 -31 -179 -7 -40 -11 -78 -8 -82 3 -5 1 -9 -3 -9 -5 0 -9 -8 -10 -17 -1
-19 -10 -63 -19 -103 -4 -14 -8 -36 -10 -50 -2 -14 -6 -36 -10 -50 -12 -50
-17 -75 -18 -97 -1 -13 -4 -23 -7 -23 -3 0 -12 -30 -19 -68 -17 -81 -15 -73
-35 -146 -8 -32 -16 -69 -17 -82 -1 -13 -6 -24 -10 -24 -4 0 -8 -8 -8 -17 0
-16 -33 -144 -48 -183 -3 -8 -4 -21 -3 -28 1 -6 -2 -12 -6 -12 -5 0 -9 -9 -10
-19 -1 -11 -16 -66 -34 -123 -18 -56 -32 -108 -32 -115 0 -7 -4 -13 -9 -13 -5
0 -8 -6 -7 -12 2 -13 -6 -41 -20 -68 -4 -8 -7 -23 -5 -32 1 -10 -1 -18 -6 -18
-7 0 -24 -57 -21 -72 0 -5 -4 -8 -11 -8 -6 0 -9 -3 -5 -6 3 -3 -1 -25 -10 -47
-8 -23 -16 -46 -17 -52 -1 -5 -4 -14 -8 -20 -3 -5 -11 -26 -16 -45 -6 -19 -25
-73 -42 -120 -18 -47 -35 -95 -37 -107 -3 -13 -10 -23 -15 -23 -5 0 -7 -4 -4
-8 3 -5 -1 -20 -9 -35 -8 -15 -11 -27 -8 -27 3 0 0 -6 -6 -13 -6 -8 -8 -17 -4
-20 3 -4 2 -7 -4 -7 -5 0 -10 -6 -11 -12 -2 -31 -9 -50 -21 -57 -7 -4 -11 -12
-10 -17 1 -5 -3 -22 -9 -37 -7 -16 -12 -35 -12 -43 0 -8 -5 -14 -10 -14 -6 0
-9 -3 -8 -7 1 -8 -5 -28 -22 -68 -5 -11 -14 -37 -21 -58 -7 -20 -17 -37 -21
-37 -4 0 -7 -3 -6 -7 3 -11 -10 -49 -38 -111 -13 -29 -24 -55 -24 -57 0 -3
-16 -39 -35 -81 -19 -41 -35 -79 -35 -84 0 -5 -6 -21 -14 -37 -8 -15 -21 -44
-29 -63 -8 -19 -25 -57 -38 -85 -13 -27 -24 -52 -24 -55 -1 -3 -11 -25 -23
-50 -12 -25 -22 -51 -22 -57 0 -7 -5 -13 -12 -13 -6 0 -9 -3 -5 -6 3 -4 -5
-28 -19 -55 -13 -27 -24 -51 -24 -54 -1 -2 -20 -46 -44 -97 -24 -51 -54 -118
-67 -148 -12 -30 -26 -57 -30 -60 -7 -6 -19 -41 -18 -54 0 -5 -3 -12 -8 -15
-7 -5 -46 -79 -47 -91 -1 -3 -13 -30 -28 -60 -35 -70 -65 -162 -74 -226 -10
-67 -11 -215 -2 -235 4 -9 9 -31 10 -48 1 -17 5 -31 8 -31 3 0 7 -11 8 -24 1
-21 13 -52 55 -148 7 -16 15 -28 19 -28 5 0 8 -5 8 -11 0 -29 160 -216 174
-202 3 4 6 1 6 -5 0 -7 19 -24 43 -39 23 -15 44 -30 47 -34 3 -3 20 -12 38
-20 17 -8 32 -17 32 -22 0 -4 6 -7 13 -5 6 1 21 -3 33 -9 40 -23 164 -53 164
-40 0 8 3 8 9 -1 6 -10 38 -13 130 -11 66 1 121 5 121 8 0 4 8 7 18 7 29 2 69
12 91 24 12 6 21 8 21 5 0 -3 11 2 25 11 14 9 25 12 25 8 0 -5 4 -4 8 1 4 6
32 23 62 40 56 30 67 37 101 68 10 9 19 14 19 10 0 -3 32 27 71 67 67 68 179
225 179 249 0 6 5 11 10 11 6 0 9 3 8 8 -3 10 53 116 63 120 5 2 9 9 9 17 0
16 50 107 64 117 6 4 7 8 3 8 -9 0 44 103 56 108 4 2 5 8 1 13 -3 5 -2 9 3 9
4 0 15 15 22 33 8 17 36 71 62 120 26 48 45 87 42 87 -3 0 0 7 7 15 7 8 26 43
43 77 16 35 35 66 41 70 6 4 7 8 3 8 -4 0 10 35 33 77 22 42 40 82 40 90 0 7
5 13 10 13 6 0 10 4 10 10 0 5 27 67 61 137 109 230 117 247 139 298 12 28 32
73 45 100 22 50 36 85 36 95 1 3 4 10 9 15 4 6 29 62 55 125 26 63 50 120 53
125 4 6 8 19 9 29 2 11 8 25 13 31 5 7 7 15 3 18 -3 4 0 7 7 7 7 0 11 3 8 6
-4 3 0 17 7 31 8 15 12 30 9 35 -3 4 0 8 7 8 7 0 9 3 6 7 -4 3 -3 11 2 17 5 6
14 29 21 51 7 22 17 46 23 53 5 6 6 12 2 12 -4 0 -2 7 5 15 7 8 10 15 6 15 -4
0 0 13 9 30 8 16 16 33 16 37 1 5 5 19 10 31 5 13 7 28 3 33 -3 5 -1 9 4 9 6
0 13 12 17 28 5 15 9 32 11 37 2 6 5 20 8 33 3 12 8 28 13 35 4 6 8 14 8 17 0
6 24 87 33 110 3 8 6 18 7 23 2 4 4 10 5 15 1 4 2 10 1 15 -1 4 6 24 14 44 8
19 17 45 19 57 3 11 14 55 26 96 12 41 24 85 26 97 2 12 9 34 14 48 5 14 7 25
5 25 -2 0 0 12 6 27 6 15 13 46 16 68 3 22 8 42 12 45 4 3 7 15 8 28 0 12 2
23 3 25 3 3 10 39 15 76 3 18 8 37 11 42 3 5 8 24 10 42 3 18 7 41 8 52 2 11
7 38 11 60 4 22 8 42 10 45 2 3 6 24 9 46 4 22 9 51 11 64 6 27 12 66 21 120
3 19 7 47 9 61 2 15 8 44 13 65 5 22 8 47 6 57 -1 9 1 17 4 17 4 0 8 15 9 33
2 38 9 90 17 132 7 44 19 146 20 177 1 16 3 28 6 28 3 0 7 21 8 48 5 65 9 107
11 107 1 0 4 25 6 55 7 92 12 128 19 139 4 6 2 11 -4 11 -6 0 -8 5 -3 13 4 6
8 21 9 32 1 18 4 57 19 255 3 36 8 90 11 120 3 30 4 64 4 75 -1 11 -1 25 -1
30 20 348 21 1505 1 1505 -3 0 -5 28 -6 63 0 34 -4 103 -8 152 -4 50 -10 119
-12 155 -7 107 -12 155 -14 155 -1 0 -3 21 -4 47 -1 26 -5 51 -9 54 -4 4 -2
13 4 21 8 9 8 13 1 13 -6 0 -10 17 -9 40 2 22 0 40 -4 40 -4 0 -6 16 -5 35 1
19 -1 35 -4 35 -3 0 -4 15 -4 32 1 18 -1 37 -4 42 -3 6 -6 24 -8 40 -2 31 -6
59 -25 176 -6 36 -13 74 -14 85 -2 11 -11 55 -19 99 -9 43 -13 82 -11 86 3 5
1 10 -4 12 -5 1 -11 21 -15 43 -3 22 -9 54 -14 70 -5 17 -8 38 -6 48 1 9 -1
17 -6 17 -4 0 -13 26 -19 58 -6 31 -13 62 -14 67 -18 54 -27 97 -22 104 3 5 1
11 -4 13 -6 1 -12 14 -14 28 -2 14 -6 32 -10 40 -9 24 -20 74 -19 83 1 4 -2 7
-6 7 -5 0 -9 6 -10 13 -1 25 -13 69 -27 105 -8 20 -17 48 -19 62 -3 14 -16 54
-29 90 -13 36 -25 68 -26 72 -3 12 -10 36 -18 56 -3 9 -7 20 -8 25 -2 4 -4 9
-5 12 -1 3 -3 9 -4 14 0 5 -4 13 -8 17 -5 4 -8 18 -8 31 0 13 -4 23 -10 23 -5
0 -10 11 -10 23 0 13 -3 27 -7 31 -5 4 -8 11 -9 14 0 4 -8 24 -17 46 -9 21
-17 41 -17 44 0 9 -61 165 -103 262 -8 19 -27 64 -41 100 -31 74 -35 84 -70
162 -14 31 -26 62 -26 67 0 6 -4 11 -8 11 -5 0 -9 6 -9 13 0 6 -14 41 -31 77
-16 36 -41 91 -56 122 -14 32 -42 93 -63 135 -20 43 -36 81 -35 86 1 4 -3 7
-10 7 -6 0 -9 2 -6 6 7 6 -142 308 -177 360 -70 103 -195 231 -257 263 -16 8
-28 18 -28 23 0 4 -9 8 -20 8 -11 0 -20 4 -20 8 0 10 -71 43 -160 73 -52 18
-91 23 -195 24 -71 2 -139 1 -150 -2z"/>
<path d="M8485 10630 c-3 -6 -10 -8 -15 -5 -5 3 -14 0 -22 -7 -7 -7 -20 -14
-28 -16 -8 -2 -32 -15 -54 -29 -21 -13 -35 -19 -30 -12 4 7 -6 3 -23 -9 -17
-12 -36 -22 -42 -22 -6 0 -11 -5 -11 -12 0 -6 -3 -9 -6 -6 -3 4 -61 -22 -129
-57 -68 -35 -126 -61 -129 -58 -3 4 -6 1 -6 -5 0 -10 -21 -21 -45 -23 -5 0
-14 -7 -18 -15 -4 -8 -15 -14 -23 -14 -16 0 -136 -60 -145 -73 -3 -5 -9 -8
-13 -6 -7 2 -235 -110 -246 -121 -3 -3 -12 -6 -20 -8 -8 -2 -23 -11 -34 -20
-10 -9 -21 -16 -25 -15 -5 1 -106 -46 -141 -67 -8 -5 -73 -37 -145 -72 -71
-35 -137 -68 -145 -73 -8 -5 -17 -10 -20 -11 -14 -2 -86 -40 -92 -49 -4 -5 -8
-6 -8 -2 0 5 -12 0 -27 -11 -16 -11 -30 -20 -33 -21 -3 -1 -15 -4 -27 -7 -13
-4 -23 -10 -23 -15 0 -5 -3 -8 -7 -7 -13 2 -63 -21 -63 -30 0 -4 -10 -8 -22
-9 -11 -1 -24 -7 -28 -13 -4 -7 -10 -11 -14 -11 -8 1 -219 -102 -226 -110 -3
-4 -12 -8 -20 -10 -8 -2 -67 -31 -130 -64 -63 -32 -117 -59 -120 -60 -3 0 -21
-9 -40 -20 -19 -11 -37 -20 -40 -20 -10 -3 -65 -30 -70 -35 -11 -11 -72 -40
-85 -40 -7 0 -15 -3 -17 -7 -4 -10 -180 -97 -190 -95 -5 1 -8 -3 -8 -10 0 -6
-3 -8 -7 -5 -3 4 -15 0 -25 -10 -10 -9 -18 -13 -18 -10 0 4 -21 -6 -47 -21
-27 -15 -82 -43 -123 -62 -41 -19 -77 -37 -80 -40 -3 -3 -63 -35 -135 -70 -71
-35 -132 -67 -133 -72 -2 -4 -8 -5 -14 -2 -6 4 -13 3 -17 -2 -8 -12 -104 -60
-113 -57 -4 2 -8 -2 -8 -8 0 -5 -4 -8 -9 -5 -5 4 -11 3 -13 -1 -3 -9 -133 -75
-145 -75 -4 0 -15 -5 -23 -12 -8 -7 -30 -18 -47 -26 -18 -7 -33 -17 -33 -23 0
-6 -3 -8 -6 -4 -4 3 -21 -1 -38 -10 -17 -10 -34 -16 -38 -15 -5 1 -8 -3 -8 -8
0 -6 -7 -10 -15 -10 -8 0 -15 -4 -15 -10 0 -5 -3 -9 -7 -8 -5 2 -74 -30 -155
-70 -81 -40 -151 -72 -154 -72 -4 1 -10 -2 -13 -7 -8 -12 -224 -119 -229 -115
-3 2 -8 0 -11 -5 -10 -14 -71 -45 -71 -36 0 4 -4 3 -8 -3 -7 -10 -119 -67
-124 -62 -2 1 -13 -7 -26 -17 -12 -11 -24 -18 -25 -16 -1 3 -23 -8 -49 -23
-27 -15 -48 -24 -48 -19 0 4 -4 3 -8 -3 -9 -14 -152 -85 -152 -76 0 4 -4 2 -8
-4 -4 -6 -135 -74 -292 -152 -157 -78 -290 -146 -297 -152 -7 -5 -16 -10 -20
-10 -12 0 -97 -44 -104 -53 -3 -5 -8 -8 -10 -7 -2 2 -51 -21 -109 -51 -100
-51 -144 -72 -182 -85 -10 -4 -18 -10 -18 -15 0 -5 -3 -8 -7 -7 -10 3 -127
-55 -131 -64 -2 -5 -8 -8 -13 -8 -12 0 -222 -102 -229 -111 -3 -4 -16 -10 -30
-14 -14 -4 -27 -10 -30 -14 -3 -3 -43 -24 -90 -46 -47 -22 -87 -43 -90 -46 -4
-5 -12 -8 -45 -20 -5 -2 -46 -23 -89 -46 -44 -24 -84 -43 -89 -43 -6 0 -18 -7
-28 -16 -9 -8 -24 -16 -32 -18 -8 -1 -21 -7 -28 -13 -8 -6 -25 -14 -39 -18
-14 -4 -27 -11 -30 -14 -7 -9 -118 -62 -126 -60 -4 0 -10 -3 -13 -8 -8 -11
-204 -108 -213 -105 -5 1 -8 -2 -8 -8 0 -5 -9 -10 -19 -10 -11 0 -21 -3 -23
-7 -4 -10 -210 -113 -225 -113 -6 0 -13 -4 -15 -8 -4 -9 -150 -82 -166 -82 -5
0 -15 -7 -22 -15 -7 -8 -21 -15 -30 -15 -10 0 -20 -4 -22 -9 -2 -5 -10 -11
-18 -13 -8 -2 -17 -5 -20 -8 -10 -10 -116 -60 -128 -60 -6 0 -12 -4 -12 -8 0
-5 -24 -19 -52 -31 -82 -35 -107 -59 -114 -112 -5 -39 -3 -49 21 -77 15 -18
33 -32 40 -32 7 0 15 -4 17 -8 3 -7 78 -56 133 -87 11 -6 53 -32 93 -58 40
-26 77 -47 82 -47 6 0 10 -4 10 -10 0 -5 7 -10 15 -10 8 0 15 -4 15 -9 0 -5 8
-12 17 -15 35 -13 73 -37 73 -47 0 -6 4 -8 9 -4 5 3 12 1 16 -4 3 -5 31 -24
63 -42 31 -18 63 -39 70 -46 7 -7 18 -13 23 -13 20 0 34 -26 34 -62 -1 -21 3
-38 8 -38 5 0 4 -7 -3 -15 -7 -8 -8 -15 -4 -15 11 0 11 -290 1 -307 -5 -8 -3
-13 3 -13 6 0 8 -5 4 -12 -4 -6 -9 -41 -11 -77 -5 -88 -10 -146 -13 -146 -1 0
-3 -22 -5 -50 -1 -27 -4 -50 -5 -50 -1 0 -4 -25 -5 -55 -2 -30 -4 -55 -5 -55
-1 0 -3 -22 -6 -50 -2 -27 -6 -68 -9 -90 -3 -22 -8 -68 -10 -103 -6 -79 -8
-85 -20 -94 -6 -5 -5 -8 3 -8 7 0 11 -4 7 -9 -5 -9 -17 -126 -18 -188 -1 -18
-4 -33 -7 -33 -3 0 -5 -24 -4 -52 0 -29 -2 -57 -5 -63 -3 -5 -6 -39 -7 -75 -2
-36 -5 -112 -9 -170 -3 -58 -7 -135 -9 -172 -1 -37 -5 -71 -9 -74 -4 -4 -2
-13 4 -20 7 -9 7 -19 0 -33 -8 -14 -8 -22 0 -27 8 -4 7 -9 -2 -15 -8 -5 -9 -9
-4 -9 6 0 11 -37 11 -88 1 -48 5 -119 9 -157 3 -39 7 -85 8 -102 1 -18 5 -33
9 -33 4 0 5 -9 3 -20 -2 -11 0 -22 6 -25 5 -4 9 -19 9 -34 0 -15 3 -31 7 -35
4 -3 8 -12 9 -20 4 -26 56 -122 82 -151 31 -36 102 -91 102 -80 0 4 6 3 13 -3
7 -6 30 -13 50 -16 20 -2 41 -7 47 -11 5 -3 10 -3 10 2 0 4 21 9 46 11 26 1
51 6 58 9 6 4 13 8 16 8 16 2 89 47 110 68 33 32 93 117 84 117 -4 0 0 8 9 18
10 10 14 22 11 25 -4 4 -2 12 4 19 6 7 11 16 11 21 0 4 3 17 6 30 3 12 7 33 9
47 3 14 5 25 6 25 4 0 10 82 15 200 3 72 5 132 6 135 0 3 0 30 -1 60 -1 30 -3
116 -5 191 -1 75 -5 141 -9 147 -3 6 -2 13 4 17 7 4 7 12 0 26 -8 14 -7 19 2
19 9 0 9 3 -2 10 -8 5 -10 10 -5 10 6 0 11 38 11 93 1 82 7 145 19 216 8 48
47 151 66 175 10 13 19 29 19 35 0 6 6 8 13 5 13 -4 17 -28 21 -124 1 -25 6
-52 11 -59 6 -10 4 -12 -4 -6 -10 6 -11 3 -2 -12 7 -14 7 -23 -1 -31 -7 -7 -8
-12 -2 -12 5 0 10 -26 10 -58 1 -58 14 -299 20 -362 9 -93 16 -137 41 -235 2
-11 5 -26 5 -32 1 -7 5 -13 10 -13 4 0 8 -6 8 -14 0 -51 133 -209 187 -222 15
-4 33 -10 38 -14 23 -18 167 1 191 25 8 8 22 15 30 15 8 0 14 5 14 10 0 6 5
10 11 10 13 0 103 90 131 130 57 81 112 168 140 222 17 35 36 66 41 69 5 3 8
9 8 13 -3 15 12 56 20 56 5 0 9 5 9 10 0 15 40 100 68 142 34 52 96 92 122 78
11 -6 20 -8 20 -5 0 2 12 -5 26 -18 28 -24 61 -82 68 -119 3 -13 5 -23 6 -23
3 0 12 -51 13 -72 1 -13 4 -23 7 -23 9 0 6 -227 -2 -236 -4 -3 -3 -16 3 -27 8
-13 8 -17 1 -13 -6 4 -10 -1 -10 -11 0 -10 -2 -31 -5 -48 -8 -42 -20 -116 -23
-140 -1 -11 -3 -20 -4 -20 -2 0 -10 -35 -15 -70 -2 -16 -7 -43 -11 -60 -4 -16
-7 -42 -8 -57 0 -16 -5 -28 -10 -28 -5 0 -7 -3 -4 -6 3 -3 2 -20 -3 -37 -8
-33 -19 -86 -24 -122 -1 -11 -3 -20 -4 -20 -2 0 -4 -7 -6 -15 -12 -58 -17 -88
-18 -107 0 -13 -4 -23 -7 -23 -3 0 -6 -8 -7 -17 -1 -25 -13 -90 -24 -138 -6
-22 -11 -49 -13 -60 -2 -11 -7 -42 -11 -70 -5 -27 -8 -53 -7 -57 1 -5 -2 -8
-7 -8 -5 0 -9 -10 -8 -22 0 -13 -3 -36 -7 -53 -3 -16 -9 -47 -12 -68 -7 -48
-12 -72 -14 -72 -1 0 -3 -9 -4 -20 -2 -11 -6 -36 -9 -55 -3 -19 -9 -53 -12
-75 -7 -42 -11 -67 -18 -100 -3 -11 -8 -42 -11 -70 -4 -27 -10 -63 -13 -80 -3
-16 -6 -41 -7 -55 0 -14 -4 -29 -7 -35 -3 -5 -7 -28 -8 -51 -2 -38 -8 -79 -11
-79 -1 0 -3 -22 -5 -50 -3 -27 -7 -75 -10 -105 -8 -83 -13 -157 -17 -235 -2
-38 -7 -73 -13 -77 -6 -5 -6 -8 1 -8 7 0 10 -12 7 -28 -5 -34 -5 -42 0 -67 2
-11 0 -28 -5 -37 -5 -10 -5 -18 -1 -18 5 0 9 -26 9 -57 1 -61 9 -147 19 -198
3 -16 8 -39 10 -50 2 -11 7 -31 13 -45 5 -14 7 -31 5 -37 -3 -7 0 -13 6 -13 6
0 11 -9 11 -20 0 -27 64 -145 102 -189 17 -20 45 -45 62 -56 17 -10 33 -22 36
-26 3 -3 16 -10 30 -14 14 -4 31 -12 39 -18 7 -6 18 -12 25 -13 6 -1 29 -10
51 -20 22 -10 46 -19 53 -20 8 -1 21 -6 30 -10 9 -4 28 -9 42 -11 13 -2 27 -7
30 -11 5 -7 21 -9 88 -14 17 -1 32 -5 32 -8 0 -11 185 -8 192 3 6 9 8 9 8 0 0
-8 13 -7 46 3 26 7 50 11 55 8 5 -3 9 -1 9 4 0 9 47 27 63 24 4 -1 7 2 7 7 0
5 7 11 15 13 44 9 200 157 195 184 -1 4 2 10 7 13 12 8 58 104 55 114 -1 4 3
7 9 7 5 0 7 5 4 10 -4 6 -2 16 3 23 9 11 16 35 26 92 22 123 24 144 11 164 -6
10 -4 12 4 6 10 -5 12 1 8 28 -2 19 0 40 6 46 6 6 7 11 2 11 -6 0 -11 39 -12
88 -2 90 -9 178 -17 228 -9 51 -18 128 -20 162 0 17 -3 32 -6 32 -3 0 -7 21
-9 48 -5 63 -9 97 -11 97 -3 0 -10 64 -10 93 0 13 -3 21 -8 19 -4 -3 -8 14 -8
36 -3 80 -9 147 -14 147 -3 0 -7 17 -9 37 -6 70 -9 98 -11 98 -3 0 -11 93 -13
147 -1 27 -4 48 -7 48 -3 0 -7 26 -8 57 -4 72 -6 85 -15 100 -5 7 -5 13 0 13
4 0 8 11 8 25 0 14 -3 25 -6 25 -3 0 -4 93 -3 208 1 114 2 207 4 207 1 0 4 14
6 30 6 59 10 81 18 93 4 7 5 12 1 12 -3 0 2 16 10 36 8 20 13 40 10 44 -3 5
-2 10 2 12 5 1 19 23 32 48 13 25 42 63 65 84 45 43 159 110 169 99 4 -3 7 -1
7 5 0 7 9 12 20 12 11 0 20 3 20 8 0 4 10 7 23 8 27 1 97 13 117 20 16 6 221
5 260 0 109 -16 122 -19 203 -41 61 -16 147 -60 147 -76 0 -4 7 -6 15 -3 8 4
15 1 15 -5 0 -6 10 -16 23 -21 12 -6 36 -19 52 -30 17 -11 43 -27 60 -36 16
-9 35 -23 43 -30 7 -8 20 -14 28 -14 8 0 14 -4 14 -10 0 -5 5 -10 11 -10 12 0
101 -59 111 -74 4 -6 8 -8 8 -4 0 7 190 -108 217 -132 7 -5 15 -10 18 -10 3 0
29 -15 58 -34 28 -18 84 -54 124 -80 40 -25 77 -46 83 -46 5 0 10 -4 10 -10 0
-5 7 -10 15 -10 8 0 15 -4 15 -10 0 -5 7 -10 15 -10 8 0 15 -4 15 -9 0 -5 8
-11 18 -15 24 -8 80 -41 101 -60 10 -9 23 -16 29 -16 7 0 12 -4 12 -10 0 -5 4
-10 9 -10 12 0 115 -63 119 -72 2 -5 8 -8 13 -8 6 0 37 -18 70 -40 33 -22 62
-40 64 -40 2 0 41 -25 87 -55 45 -30 88 -55 95 -55 6 0 13 -4 15 -8 3 -8 98
-71 128 -85 8 -4 42 -25 75 -47 33 -22 68 -43 78 -46 9 -4 17 -10 17 -15 0 -5
5 -9 10 -9 6 0 32 -14 58 -31 150 -98 249 -160 265 -165 9 -3 17 -10 17 -15 0
-5 4 -9 9 -9 12 0 145 -82 149 -92 2 -5 8 -8 13 -8 6 0 44 -23 86 -50 42 -28
78 -50 80 -50 2 0 24 -13 48 -30 24 -16 48 -30 54 -30 6 0 11 -4 11 -10 0 -5
5 -10 11 -10 6 0 25 -10 42 -22 42 -31 69 -46 90 -54 9 -3 17 -10 17 -15 0 -5
7 -9 15 -9 8 0 15 -4 15 -9 0 -5 8 -11 18 -15 24 -8 80 -41 101 -60 10 -9 23
-16 29 -16 7 0 12 -4 12 -10 0 -5 4 -10 9 -10 5 0 32 -14 60 -31 40 -25 57
-30 83 -25 18 3 39 7 46 8 6 1 12 4 12 8 0 6 13 23 50 68 6 6 8 12 5 12 -3 0
7 19 23 43 16 23 32 49 36 57 4 8 12 24 19 35 56 91 97 165 97 174 0 6 5 11
10 11 6 0 10 7 10 15 0 8 5 15 10 15 6 0 10 9 10 20 0 11 5 20 12 20 6 0 8 3
5 6 -4 4 2 19 13 34 11 16 20 31 20 35 0 4 9 19 20 35 11 15 17 30 13 34 -3 3
-1 6 5 6 7 0 12 9 12 19 0 11 4 21 8 23 10 4 98 181 94 191 -1 4 2 7 8 7 5 0
10 9 10 20 0 11 3 20 8 20 4 0 16 21 26 48 11 26 27 58 36 72 10 14 15 31 13
38 -3 6 0 12 5 12 9 0 19 23 28 65 3 10 8 22 12 25 8 5 17 24 22 45 1 6 8 21
15 35 22 40 55 116 55 124 0 4 11 32 25 62 14 30 25 57 25 60 0 3 6 20 14 37
14 32 25 63 26 72 0 3 11 30 25 60 13 30 21 55 18 55 -3 0 -1 6 4 13 10 12 32
72 34 92 0 6 4 15 8 20 9 11 25 66 23 78 -1 4 3 7 10 7 6 0 8 3 5 7 -4 3 -2
12 3 19 6 6 10 16 8 20 -1 5 3 18 9 29 6 11 11 22 11 25 0 11 26 95 32 100 3
3 6 12 7 20 3 24 10 52 26 97 9 22 13 44 10 47 -4 3 -1 6 6 6 7 0 10 4 7 8 -3
5 2 28 10 53 9 24 17 51 19 59 2 8 10 40 19 71 9 31 19 66 21 78 3 11 7 29 10
38 16 61 38 151 41 168 2 11 8 38 14 60 10 39 14 57 25 113 6 27 9 43 21 92 3
14 7 39 10 55 3 17 9 41 13 55 4 14 7 33 5 42 -1 10 1 18 5 18 4 0 7 8 7 18 1
20 12 87 20 122 3 14 6 40 7 58 1 17 4 32 7 32 3 0 6 12 7 28 1 15 4 38 6 52
10 48 25 163 32 230 2 25 5 45 5 45 1 0 4 23 6 50 3 28 7 57 10 65 3 8 8 44
10 80 4 75 9 134 19 240 3 41 8 103 9 136 2 34 7 67 11 74 6 9 4 11 -5 5 -9
-6 -11 -4 -5 5 11 17 15 151 15 505 0 343 -3 495 -10 495 -3 0 -5 33 -6 73 -1
39 -5 110 -9 157 -4 47 -8 103 -9 125 -1 23 -4 45 -7 50 -3 6 -5 34 -5 62 1
29 -2 53 -5 53 -4 0 -7 17 -8 38 -1 71 -4 92 -10 92 -3 0 -6 19 -7 43 0 23 -3
62 -7 87 -4 25 -9 63 -12 85 -4 22 -8 51 -10 65 -2 14 -7 43 -11 65 -3 22 -7
51 -9 65 -2 14 -4 25 -5 25 -2 0 -9 34 -14 75 -2 19 -7 42 -10 50 -2 8 -7 31
-10 50 -2 19 -7 46 -10 60 -3 14 -7 37 -8 53 -1 15 -6 27 -11 27 -4 0 -7 8 -6
18 1 9 0 19 -1 22 -3 10 -10 45 -16 88 -3 23 -10 42 -14 42 -4 0 -7 14 -6 30
1 17 -2 30 -8 30 -5 0 -7 2 -4 6 3 3 0 25 -8 50 -7 24 -10 44 -7 44 3 0 1 6
-4 13 -5 6 -8 22 -7 35 0 12 -2 22 -6 22 -5 0 -29 86 -35 130 -1 3 -7 23 -15
45 -8 22 -14 45 -15 50 -1 14 -15 67 -22 85 -7 18 -13 40 -17 60 -2 8 -7 24
-11 35 -17 49 -24 71 -27 90 -2 11 -8 26 -15 33 -7 7 -10 19 -7 26 3 8 0 17
-5 21 -6 3 -9 10 -6 15 3 5 1 11 -5 15 -5 3 -10 16 -10 28 0 13 -7 33 -16 45
-8 12 -13 22 -10 22 5 0 -15 62 -31 100 -3 8 -7 18 -8 23 -2 4 -4 9 -5 12 -1
3 -3 8 -5 13 -1 4 -5 15 -9 24 -4 9 -9 22 -10 30 -2 7 -8 26 -14 41 -7 16 -12
33 -12 38 0 5 -5 9 -11 9 -5 0 -7 5 -4 10 4 6 1 17 -5 25 -6 8 -9 19 -5 25 3
5 1 10 -4 10 -6 0 -11 4 -11 9 0 5 -5 22 -12 38 -6 15 -12 30 -13 33 -3 10
-26 66 -34 85 -5 11 -16 36 -24 55 -8 19 -23 53 -33 75 -9 22 -18 42 -19 45
-6 20 -70 158 -114 248 -22 45 -40 85 -41 87 0 3 -13 32 -30 65 -28 56 -60 95
-78 95 -4 0 -13 4 -21 9 -11 7 -12 6 -6 -5 7 -12 6 -12 -7 -1 -11 9 -18 10
-23 2z m-1350 -1338 c4 -15 5 -28 3 -28 -2 -1 6 -12 17 -25 11 -12 14 -19 6
-14 -10 6 -12 4 -5 -6 4 -8 9 -18 11 -24 1 -5 5 -21 8 -35 4 -14 7 -31 7 -37
1 -7 6 -13 11 -13 5 0 4 -7 -3 -15 -10 -12 -10 -15 0 -15 8 0 10 -3 7 -7 -4
-3 -2 -12 4 -20 9 -10 8 -13 0 -13 -7 0 -9 -5 -4 -12 10 -18 13 -46 13 -168 1
-111 -1 -127 -13 -147 -5 -7 -4 -13 0 -13 5 0 9 -9 9 -20 0 -11 -3 -20 -7 -20
-4 0 -6 -11 -4 -25 1 -14 -2 -25 -7 -25 -6 0 -8 -7 -5 -15 4 -8 2 -17 -3 -20
-5 -3 -9 -13 -9 -23 0 -19 -4 -39 -15 -64 -4 -9 -9 -25 -11 -35 -2 -10 -4 -20
-5 -23 -1 -3 -2 -8 -1 -12 0 -5 -4 -8 -10 -8 -6 0 -9 -7 -5 -15 3 -8 1 -15 -4
-15 -6 0 -10 -9 -10 -20 0 -11 -4 -20 -9 -20 -9 0 -35 -58 -32 -72 0 -5 -4 -8
-9 -8 -6 0 -10 -7 -10 -15 0 -7 -8 -18 -17 -24 -10 -5 -17 -13 -17 -18 2 -16
-19 -52 -27 -47 -5 3 -9 -3 -9 -14 0 -10 -13 -31 -30 -47 -16 -15 -28 -33 -27
-38 1 -6 -5 -12 -13 -12 -8 0 -15 -5 -14 -10 1 -11 -55 -68 -71 -73 -6 -2 -9
-8 -8 -13 2 -5 -2 -9 -8 -9 -14 0 -39 -26 -40 -42 0 -9 -2 -9 -5 -1 -6 13 -51
-26 -47 -39 2 -4 -4 -5 -12 -2 -8 4 -17 -1 -21 -10 -3 -9 -10 -13 -15 -10 -5
3 -9 0 -9 -5 0 -6 -6 -11 -14 -11 -8 0 -17 -7 -20 -16 -4 -9 -9 -14 -13 -10
-3 3 -15 -2 -26 -11 -10 -10 -22 -17 -26 -17 -15 3 -30 -9 -24 -20 3 -6 3 -8
-2 -4 -4 4 -15 2 -23 -5 -11 -8 -13 -8 -9 0 5 8 1 8 -18 0 -14 -7 -25 -16 -25
-20 0 -5 -4 -5 -10 -2 -5 3 -10 0 -10 -7 0 -9 -3 -9 -10 2 -8 12 -10 10 -10
-10 0 -19 -3 -22 -9 -11 -7 12 -13 12 -24 3 -7 -7 -17 -9 -20 -5 -4 3 -7 0 -7
-7 0 -7 -3 -11 -6 -8 -3 4 -20 2 -37 -3 -46 -14 -69 -20 -94 -24 -12 -2 -27
-6 -34 -11 -8 -5 -9 -3 -4 5 6 11 3 11 -16 0 -13 -6 -38 -12 -57 -11 -19 1
-30 -3 -27 -8 4 -6 -2 -7 -15 -2 -11 4 -50 5 -86 2 -36 -3 -68 -2 -71 3 -2 4
-10 3 -17 -2 -7 -6 -16 -8 -19 -4 -4 3 -31 8 -59 10 -78 6 -78 6 -78 16 0 5
-7 4 -15 -3 -12 -10 -15 -10 -15 0 0 7 -6 10 -14 7 -8 -3 -17 -3 -21 1 -4 4
-10 7 -13 8 -52 8 -94 18 -98 25 -3 5 -10 7 -15 4 -5 -4 -9 -1 -9 5 0 7 -7 10
-15 6 -8 -3 -15 -1 -15 5 0 6 -7 9 -15 6 -8 -4 -17 -2 -20 4 -4 5 -11 6 -17 3
-7 -4 -8 -2 -4 4 4 7 2 13 -3 13 -20 3 -26 5 -48 17 -13 7 -23 9 -23 5 0 -4
-5 0 -11 10 -6 9 -14 15 -20 12 -5 -4 -9 -1 -9 5 0 7 -7 10 -15 6 -9 -3 -15 0
-15 9 0 8 -9 15 -21 15 -13 0 -18 4 -13 12 5 8 0 9 -14 6 -12 -4 -20 -2 -17 2
3 5 -16 23 -42 41 -27 17 -54 40 -61 51 -7 10 -19 15 -25 12 -7 -4 -9 -4 -5 0
9 10 -49 74 -74 81 -10 4 -16 10 -13 15 3 5 -5 17 -18 27 -13 10 -25 23 -28
28 -2 6 -8 9 -12 7 -5 -1 -7 3 -5 10 2 6 -8 25 -24 41 -15 17 -28 36 -28 44 0
8 -4 12 -8 9 -4 -2 -9 4 -9 15 -1 11 5 19 13 19 8 0 24 9 36 20 12 10 25 17
30 14 4 -3 8 0 8 6 0 6 4 9 9 5 5 -3 12 -1 16 5 4 6 11 8 16 5 5 -4 9 -2 9 2
0 5 34 24 75 43 41 19 75 38 75 43 0 4 4 6 9 2 5 -3 15 0 23 7 7 7 20 14 28
16 8 2 24 11 35 20 19 16 19 16 5 -3 -12 -17 -10 -16 11 3 14 12 29 19 32 15
4 -3 7 -1 7 5 0 7 7 12 15 12 8 0 15 5 15 10 0 6 3 9 8 8 11 -4 132 56 132 65
0 5 5 5 11 1 6 -3 14 -3 18 2 7 10 71 41 85 42 5 0 12 5 16 12 4 6 16 12 28
13 11 0 18 5 16 9 -5 7 3 10 22 7 4 0 10 3 13 8 7 11 75 43 90 43 6 0 11 4 11
8 0 5 18 15 40 22 22 7 40 17 40 22 0 4 6 8 14 8 8 0 22 7 30 16 12 12 16 12
16 2 0 -8 5 -6 11 5 6 9 14 15 20 12 5 -4 9 -1 9 5 0 6 5 8 10 5 6 -3 13 0 16
9 3 9 12 12 21 9 11 -4 14 -2 9 5 -4 8 -2 10 7 6 8 -3 17 3 21 13 6 15 8 15
16 3 7 -10 10 -11 10 -2 0 6 7 12 15 12 8 0 15 4 15 8 0 5 18 15 40 22 22 7
40 17 40 22 0 4 9 8 19 8 11 0 26 7 34 15 8 8 17 11 21 8 3 -4 6 -1 6 5 0 7 3
11 8 10 6 -3 46 15 160 71 17 8 32 19 32 23 0 5 3 7 8 6 12 -4 72 24 72 34 0
6 7 8 15 4 8 -3 15 -1 15 5 0 6 4 8 8 5 5 -3 19 4 30 14 12 11 25 19 29 18 11
-2 83 34 83 42 0 3 10 7 22 7 13 1 28 9 34 18 7 9 16 15 20 14 10 -3 66 22 74
32 6 6 41 22 53 23 4 1 11 6 15 11 4 6 14 11 22 13 8 2 16 7 18 12 2 5 10 6
18 3 8 -3 14 0 14 7 0 6 6 10 12 8 7 -3 21 3 31 13 24 22 43 15 52 -19z m823
-882 c1 -1 5 -3 10 -4 8 -1 13 -5 86 -68 27 -24 60 -51 75 -60 14 -10 22 -18
16 -19 -5 0 0 -4 13 -10 13 -5 20 -13 17 -19 -3 -5 1 -10 10 -10 8 0 20 -11
26 -24 6 -13 22 -30 35 -37 14 -7 22 -19 20 -26 -3 -7 0 -15 6 -19 7 -4 8 -3
4 4 -4 7 -2 12 3 12 6 0 11 -7 11 -16 0 -9 5 -12 12 -8 7 5 9 2 5 -9 -4 -11
-2 -14 7 -11 15 6 40 -21 32 -35 -4 -5 7 -17 22 -27 16 -9 37 -30 46 -46 10
-15 21 -26 26 -23 5 3 12 -4 15 -16 10 -31 77 -97 94 -91 8 3 11 0 7 -6 -3 -6
-2 -13 4 -17 5 -3 10 -1 10 5 0 6 5 8 10 5 6 -3 14 -4 19 -1 11 7 -8 76 -21
76 -5 0 -6 5 -3 10 3 6 1 10 -5 10 -6 0 -8 5 -5 10 3 6 1 10 -4 10 -6 0 -11 9
-11 20 0 11 -5 20 -11 20 -5 0 -8 4 -5 8 3 5 -4 16 -14 25 -11 9 -17 23 -14
32 4 8 1 15 -6 15 -6 0 -9 4 -5 9 3 5 0 13 -6 16 -5 4 -8 13 -5 21 3 8 1 14
-5 14 -6 0 -8 4 -5 9 4 5 1 22 -4 37 -8 21 -8 29 2 36 10 6 10 8 -1 8 -11 0
-11 3 -1 15 8 9 9 15 2 15 -7 0 -6 10 3 27 8 15 12 30 9 34 -2 4 5 11 17 14
17 6 19 9 8 17 -10 7 -8 8 9 5 12 -3 20 -2 17 3 -3 4 5 14 18 22 26 17 132 24
141 9 4 -6 13 -8 21 -4 8 3 15 0 15 -6 0 -6 3 -10 8 -9 13 4 52 -13 52 -23 0
-5 7 -9 15 -9 8 0 15 -4 15 -9 0 -5 11 -12 25 -15 14 -4 25 -13 25 -21 0 -8 4
-15 10 -15 13 0 66 -60 63 -71 -2 -5 2 -8 7 -6 6 1 16 -9 23 -23 8 -14 19 -24
26 -22 7 1 10 -2 7 -7 -4 -5 -2 -12 4 -16 6 -4 8 -10 6 -14 -3 -4 4 -18 15
-29 11 -12 16 -22 12 -22 -4 0 -2 -4 5 -9 12 -7 18 -25 21 -54 1 -5 5 -6 9 -3
4 2 9 -7 10 -22 1 -15 8 -31 15 -37 8 -5 12 -16 9 -23 -2 -7 0 -20 4 -30 8
-18 13 -41 18 -79 1 -13 5 -26 9 -29 3 -3 3 -12 0 -20 -3 -8 0 -21 7 -29 10
-12 10 -15 -1 -15 -9 0 -10 -3 -4 -8 11 -8 11 -43 0 -154 -4 -43 -11 -78 -15
-78 -3 0 -6 -10 -5 -22 1 -13 0 -27 -4 -33 -3 -5 -6 -12 -6 -15 -5 -32 -18
-70 -25 -70 -5 0 -7 -9 -5 -20 2 -11 0 -20 -6 -20 -5 0 -9 -7 -9 -15 0 -8 -4
-15 -10 -15 -5 0 -10 -7 -10 -16 0 -8 -4 -13 -9 -10 -5 4 -7 -3 -4 -14 3 -12
0 -20 -6 -20 -7 0 -10 -4 -7 -8 3 -5 -4 -16 -15 -25 -10 -9 -19 -24 -19 -32 0
-9 -3 -14 -7 -12 -8 4 -43 -28 -43 -38 0 -3 0 -10 0 -16 0 -5 -4 -7 -10 -4 -5
3 -10 0 -10 -8 0 -8 -8 -21 -17 -28 -17 -13 -17 -13 -3 6 11 15 7 14 -15 -5
-17 -14 -34 -31 -38 -38 -5 -7 -12 -10 -17 -7 -4 3 -10 -2 -14 -10 -3 -8 -12
-15 -20 -15 -7 0 -16 -7 -20 -15 -3 -8 -15 -15 -26 -15 -11 0 -20 -4 -20 -10
0 -5 -16 -12 -35 -16 -19 -3 -35 -10 -35 -16 0 -5 -4 -6 -10 -3 -5 3 -10 1
-10 -5 0 -6 -6 -10 -12 -8 -12 2 -36 -3 -138 -29 -29 -7 -256 -7 -315 0 -21 3
-41 10 -43 16 -3 8 -9 8 -23 1 -13 -7 -19 -7 -19 0 0 5 -6 10 -14 10 -7 0 -27
7 -42 15 -16 8 -37 15 -46 15 -9 0 -20 5 -23 10 -4 6 -11 7 -17 4 -6 -4 -8 -2
-4 4 3 6 -8 15 -29 22 -19 6 -35 16 -35 21 0 5 -6 9 -13 9 -8 0 -22 9 -32 20
-10 11 -21 20 -26 20 -11 0 -79 71 -79 83 0 6 -3 7 -7 4 -7 -8 -52 55 -58 81
-2 9 -8 31 -13 47 -9 34 5 138 18 130 5 -3 12 6 16 20 3 14 9 23 12 20 3 -3
16 5 29 17 14 13 23 17 23 9 0 -11 3 -11 16 0 17 14 123 20 139 8 6 -4 23 -6
37 -5 16 2 29 -3 32 -11 3 -7 9 -12 13 -11 11 2 86 -35 95 -47 5 -6 8 -6 8 0
0 5 5 4 12 -3 17 -17 57 -15 64 3 9 23 -76 134 -103 135 -7 0 -13 5 -13 10 0
6 -9 10 -21 10 -11 0 -18 4 -14 9 3 5 -3 12 -12 15 -10 3 -30 17 -44 30 -15
14 -29 23 -32 20 -2 -2 -10 2 -17 11 -7 8 -18 15 -24 15 -6 0 -17 9 -24 20 -7
11 -18 20 -26 20 -8 0 -16 7 -20 15 -3 8 -9 15 -13 14 -21 -4 -33 2 -33 16 0
8 -7 15 -15 15 -8 0 -15 5 -15 10 0 6 -6 10 -13 10 -7 0 -18 9 -25 20 -7 11
-17 20 -23 20 -6 0 -30 20 -54 44 -24 25 -45 43 -46 41 -2 -1 -10 3 -17 11 -7
8 -10 14 -6 14 4 0 -6 12 -22 26 -16 15 -22 23 -14 18 12 -6 13 -5 4 7 -6 8
-10 21 -8 29 11 53 15 64 23 69 5 3 11 15 13 26 1 11 11 26 21 33 9 7 15 17
12 22 -3 5 4 14 15 20 11 6 20 20 20 30 0 11 4 20 10 20 5 0 27 17 47 37 21
20 32 33 26 29 -19 -11 -16 1 6 23 11 11 22 17 25 14 3 -4 6 -1 6 6 0 13 59
71 73 71 4 0 5 5 2 10 -6 9 7 14 21 8 3 -2 10 5 15 15 6 9 14 15 20 12 5 -4 9
-2 9 2 0 8 70 10 78 3z m-2883 -430 c10 -11 16 -20 13 -20 -3 0 -13 9 -23 20
-10 11 -16 20 -13 20 3 0 13 -9 23 -20z m-2195 -722 c0 -5 13 -8 28 -8 16 0
32 -3 36 -7 4 -5 11 -8 14 -9 25 -2 92 -29 92 -36 0 -5 4 -7 9 -4 5 3 29 -14
55 -37 25 -24 46 -42 46 -41 0 1 18 -16 40 -38 22 -22 37 -44 34 -49 -3 -5 -1
-9 5 -9 12 0 51 -72 51 -95 0 -8 5 -15 11 -15 6 0 8 -9 4 -20 -3 -11 -2 -20 4
-20 5 0 13 -30 16 -66 10 -93 11 -164 3 -164 -5 0 -8 -15 -8 -33 0 -19 -3 -37
-7 -41 -4 -3 -8 -13 -10 -21 -2 -8 -4 -21 -6 -29 -2 -8 -8 -20 -15 -28 -6 -8
-10 -17 -7 -20 3 -3 -1 -11 -10 -18 -8 -7 -15 -18 -15 -25 0 -6 -9 -20 -20
-30 -11 -10 -20 -23 -20 -29 0 -25 -182 -162 -200 -151 -5 3 -11 1 -15 -5 -4
-6 -11 -8 -16 -5 -5 4 -9 1 -9 -4 0 -6 -13 -11 -30 -11 -16 0 -30 -3 -30 -8 0
-4 -54 -7 -120 -7 -66 0 -120 3 -120 7 0 5 -11 8 -24 8 -14 0 -37 5 -53 11
-15 6 -30 11 -33 11 -3 0 -17 9 -32 20 -16 11 -28 16 -28 11 0 -4 -5 0 -11 10
-5 9 -15 17 -22 17 -16 0 -127 111 -127 128 0 7 -6 15 -14 18 -7 3 -19 23 -26
45 -7 21 -17 39 -21 39 -4 0 -10 19 -14 43 -4 23 -10 47 -14 52 -10 15 -5 234
7 278 6 21 15 44 22 52 6 8 9 19 5 25 -3 5 -1 10 4 10 6 0 11 9 11 20 0 11 5
20 10 20 6 0 14 8 17 18 8 21 15 29 76 95 26 28 47 48 47 43 0 -4 7 -1 15 6
33 30 45 38 45 32 0 -3 6 -1 13 5 8 6 17 8 20 4 4 -3 7 -2 7 3 0 13 61 35 135
48 68 13 195 15 195 4z m1920 -540 c14 0 29 -3 34 -6 5 -3 32 -6 60 -8 53 -3
140 -19 166 -31 8 -3 17 -7 20 -8 47 -16 82 -43 74 -56 -3 -5 0 -9 6 -9 11 0
12 -95 1 -115 -3 -5 -6 -28 -8 -50 -3 -54 -18 -139 -38 -215 -3 -14 -8 -36 -9
-50 -2 -14 -8 -36 -14 -50 -5 -14 -8 -29 -5 -33 3 -4 0 -14 -6 -21 -7 -8 -11
-18 -10 -22 3 -16 -13 -74 -22 -80 -5 -3 -7 -9 -4 -14 3 -5 -1 -26 -9 -47 -8
-21 -17 -47 -21 -58 -11 -28 -12 -81 -3 -106 8 -21 8 -21 34 4 14 14 26 29 26
34 0 4 11 21 24 36 13 16 22 33 18 38 -3 5 0 9 5 9 6 0 11 6 11 13 0 32 99
145 153 174 47 26 144 25 182 -1 17 -12 31 -20 33 -18 1 1 1 1 0 0 -2 -2 8
-19 22 -38 23 -32 25 -46 28 -151 2 -73 -1 -132 -9 -160 -7 -24 -13 -51 -14
-59 0 -8 -7 -26 -15 -40 -8 -14 -13 -29 -12 -33 4 -15 -105 -197 -118 -197 -5
0 -11 -9 -15 -19 -6 -20 -112 -131 -118 -125 -2 2 -12 -5 -22 -16 -10 -11 -24
-20 -32 -20 -7 0 -16 -6 -19 -14 -5 -14 -60 -41 -76 -37 -5 0 -8 -3 -8 -9 0
-5 -7 -10 -15 -10 -8 0 -15 -5 -15 -11 0 -5 -4 -8 -9 -5 -5 3 -22 -1 -37 -9
-16 -8 -37 -15 -46 -15 -10 0 -18 -4 -18 -8 0 -4 -10 -9 -22 -10 -32 -2 -72
-9 -97 -17 -28 -8 -145 -10 -159 -1 -6 3 -13 2 -16 -2 -6 -11 -36 -9 -56 3 -7
5 -30 9 -49 10 -20 1 -38 3 -41 5 -3 2 -9 4 -15 5 -5 1 -23 7 -38 13 -16 7
-33 12 -38 12 -5 0 -9 5 -9 11 0 5 -3 8 -7 6 -5 -3 -24 3 -43 14 -19 10 -46
24 -59 31 -33 17 -59 39 -143 121 -39 37 -67 67 -63 67 5 0 -1 8 -12 18 -25
21 -103 158 -95 166 3 3 1 6 -5 6 -6 0 -16 21 -23 48 -7 26 -16 52 -20 57 -3
6 -6 17 -5 25 1 8 -3 24 -8 35 -6 10 -10 32 -9 47 0 15 -2 28 -6 28 -7 0 -6
200 2 258 2 18 9 39 15 46 6 7 8 16 5 19 -8 7 31 93 46 102 6 3 8 10 6 14 -3
4 8 15 25 25 16 9 29 21 29 25 0 5 11 7 25 6 14 -2 27 0 30 5 4 6 27 5 75 -4
57 -11 100 -51 134 -121 23 -48 26 -59 31 -110 3 -22 8 -60 11 -85 4 -25 6
-51 5 -57 -1 -7 3 -13 9 -13 5 0 10 -7 10 -15 0 -8 3 -15 7 -15 12 0 43 33 43
47 0 7 4 13 8 13 12 0 14 13 16 125 0 55 5 103 10 106 4 4 9 63 9 133 1 69 4
126 8 126 3 0 7 28 8 63 1 78 11 149 22 163 4 5 6 20 2 32 -3 13 -1 22 6 22 6
0 11 7 11 15 0 18 45 49 60 40 5 -3 10 -2 10 3 0 6 8 8 19 5 10 -3 21 -1 24 4
4 6 33 6 74 1 37 -5 79 -9 93 -10z m2395 -104 c22 -3 47 -8 55 -11 8 -4 22 -7
30 -8 8 -1 23 -5 33 -8 9 -4 25 -10 35 -14 9 -3 23 -5 30 -4 6 1 12 -3 12 -9
0 -6 6 -10 13 -8 17 3 147 -62 147 -74 0 -5 4 -7 9 -3 5 3 16 -3 23 -13 7 -11
17 -19 21 -20 5 0 20 -9 33 -21 13 -11 24 -19 24 -16 0 3 34 -28 75 -69 41
-41 75 -79 75 -85 0 -6 9 -16 20 -23 11 -7 20 -18 20 -25 0 -6 6 -18 13 -25
16 -16 92 -169 92 -185 0 -6 4 -15 8 -19 4 -4 7 -16 7 -26 0 -10 5 -18 11 -18
5 0 7 -5 4 -10 -4 -6 -1 -17 5 -25 6 -8 9 -19 6 -24 -4 -5 -2 -12 3 -16 6 -3
8 -12 5 -19 -3 -8 -1 -16 4 -20 4 -3 7 -28 6 -56 -2 -27 0 -50 4 -50 4 0 7
-36 8 -80 0 -44 -3 -80 -6 -80 -3 0 -7 -23 -8 -51 0 -28 -6 -57 -12 -64 -8 -9
-8 -15 -1 -20 7 -4 6 -15 -4 -34 -8 -16 -11 -32 -7 -35 3 -4 2 -10 -4 -14 -10
-7 -39 -91 -36 -104 1 -5 -2 -8 -7 -8 -9 0 -37 -60 -33 -72 1 -5 -2 -8 -8 -8
-5 0 -10 -7 -10 -15 0 -8 -5 -15 -11 -15 -5 0 -7 -5 -4 -10 3 -6 -1 -13 -9
-16 -9 -3 -16 -12 -16 -19 0 -7 -12 -24 -26 -39 -15 -14 -24 -26 -20 -26 3 0
-27 -33 -67 -74 -39 -40 -74 -72 -77 -70 -3 1 -23 -13 -45 -32 -22 -19 -45
-34 -52 -34 -6 0 -13 -4 -15 -9 -4 -12 -103 -61 -123 -61 -8 0 -15 -5 -15 -11
0 -5 -4 -8 -9 -4 -5 3 -12 1 -16 -5 -3 -5 -12 -10 -20 -10 -8 0 -26 -5 -42
-12 -15 -6 -39 -12 -53 -13 -14 -1 -33 -5 -43 -9 -9 -5 -26 -6 -37 -3 -10 3
-24 0 -29 -7 -10 -11 -96 -14 -107 -3 -4 3 -14 3 -23 -1 -14 -6 -85 -8 -101
-2 -11 4 -47 10 -80 14 -19 2 -35 5 -35 6 0 1 -11 3 -25 5 -61 8 -288 108
-297 131 -2 7 -11 10 -19 7 -8 -3 -14 0 -14 6 0 7 -8 15 -17 18 -20 7 -174
162 -213 214 -14 18 -24 36 -23 41 2 4 -4 8 -12 8 -8 0 -15 9 -15 20 0 11 -4
20 -10 20 -5 0 -9 3 -8 8 2 9 -24 65 -35 73 -4 3 -10 19 -13 34 -3 16 -10 35
-16 42 -6 7 -7 13 -3 13 4 0 2 7 -5 15 -7 8 -9 15 -6 15 4 0 2 9 -4 21 -7 11
-14 35 -16 52 -3 18 -7 43 -10 57 -10 49 -12 310 -3 310 5 0 7 11 5 25 -4 21
-1 37 22 105 3 8 6 20 7 25 1 6 3 12 4 15 2 3 4 12 6 20 2 8 9 29 16 45 7 17
13 32 14 35 0 3 9 21 20 40 11 19 18 38 17 43 -1 4 3 7 9 7 6 0 9 5 7 12 -2 6
3 20 11 29 32 35 41 48 41 58 0 6 6 14 13 18 7 4 31 29 52 56 22 26 43 47 47
47 4 0 24 18 44 40 20 22 42 40 49 40 7 0 15 3 17 8 5 12 60 47 113 72 28 13
53 28 57 34 4 6 8 7 8 2 0 -5 7 -2 17 5 9 8 17 13 17 11 1 -2 14 1 29 7 16 6
37 11 48 11 10 0 19 4 19 9 0 6 8 10 18 10 39 1 122 14 122 20 0 7 238 4 295
-5z m328 -2255 c27 9 180 7 225 -4 17 -4 32 -12 32 -17 0 -5 4 -7 9 -3 11 6
54 -34 73 -68 19 -34 18 -127 -1 -162 -22 -41 -107 -125 -126 -125 -8 0 -15
-5 -15 -11 0 -6 -6 -9 -14 -6 -8 3 -17 -1 -20 -8 -3 -8 -12 -12 -21 -9 -8 4
-22 1 -30 -6 -8 -7 -15 -9 -15 -4 0 5 -5 1 -11 -8 -5 -10 -16 -15 -24 -12 -8
4 -15 1 -15 -6 0 -6 -4 -9 -9 -5 -6 3 -14 -2 -19 -12 -12 -20 6 -41 40 -47 13
-3 23 -5 23 -6 0 -6 62 -7 70 -1 6 3 17 6 25 7 8 0 23 4 33 9 10 4 21 5 24 2
3 -4 15 -1 27 5 11 7 29 11 39 9 10 -1 24 2 31 8 6 5 21 10 31 10 25 0 83 9
115 17 42 11 63 15 106 18 23 2 45 5 50 8 5 3 28 6 50 7 23 1 52 4 65 7 67 16
168 -5 162 -34 -2 -7 2 -12 7 -12 6 0 10 -9 10 -19 0 -11 5 -23 10 -26 6 -4 8
-10 5 -15 -3 -5 -1 -11 5 -15 6 -4 8 -11 5 -16 -4 -5 -3 -15 2 -21 4 -7 8 -24
9 -38 3 -50 14 -146 20 -175 8 -38 11 -165 4 -172 -5 -5 -7 -12 -9 -41 -1 -24
-37 -65 -59 -69 -9 -2 -29 -4 -44 -6 -16 -1 -28 -4 -28 -7 0 -8 -50 -10 -390
-13 -179 -1 -331 -6 -338 -11 -7 -4 -16 -6 -19 -2 -7 6 -33 -19 -33 -32 0 -5
17 -18 38 -28 38 -18 42 -20 77 -26 11 -2 25 -6 30 -10 6 -3 29 -9 52 -13 24
-4 45 -11 49 -16 3 -5 10 -7 15 -4 5 4 9 1 9 -5 0 -6 5 -8 10 -5 6 3 13 -1 16
-9 3 -9 10 -14 14 -11 5 3 15 -2 23 -10 9 -8 19 -15 24 -15 5 0 16 -9 26 -20
9 -11 14 -20 11 -20 -4 0 1 -12 11 -26 22 -33 22 -112 0 -155 -20 -38 -60 -80
-69 -72 -3 4 -6 1 -6 -6 0 -7 -4 -10 -9 -6 -5 3 -12 1 -16 -5 -3 -5 -15 -10
-26 -10 -10 0 -19 -4 -19 -9 0 -6 -8 -10 -17 -10 -21 -1 -78 -8 -78 -11 0 -2
-179 -2 -185 0 -6 2 -55 9 -92 13 -15 2 -31 6 -34 10 -4 4 -13 7 -20 7 -7 0
-25 5 -41 12 -15 7 -33 12 -39 13 -16 1 -128 58 -132 68 -2 4 -8 5 -13 1 -5
-3 -12 2 -15 10 -3 9 -11 16 -18 16 -6 0 -25 12 -41 28 -16 15 -34 26 -39 24
-4 -2 -6 4 -2 13 4 11 1 15 -12 13 -11 -2 -16 2 -14 12 2 8 0 12 -4 7 -8 -8
-44 21 -44 36 0 15 -47 66 -55 59 -4 -4 -6 -2 -4 3 3 14 -22 65 -33 65 -4 0
-7 3 -6 8 2 10 -24 65 -35 73 -5 3 -8 8 -7 10 1 2 -4 18 -10 34 -6 17 -12 38
-13 48 -1 9 -4 17 -7 17 -3 0 -7 12 -8 28 -1 15 -7 29 -13 30 -6 3 -6 9 2 18
9 11 9 14 0 14 -7 0 -9 5 -6 10 4 6 4 19 0 28 -11 25 -12 165 -2 179 5 7 7 19
4 27 -3 8 -3 17 0 20 4 3 8 16 9 28 6 39 9 53 17 66 5 6 6 16 2 21 -3 5 -1 12
5 16 5 3 10 15 10 26 0 10 5 19 11 19 5 0 8 4 4 9 -3 5 2 16 10 25 9 8 14 17
13 18 -2 2 6 19 18 38 11 19 21 39 21 44 1 5 8 13 17 18 9 5 16 14 16 20 0 6
14 24 32 40 17 15 28 28 23 28 -4 0 0 9 10 20 10 11 22 17 27 14 4 -3 8 -2 7
3 -3 19 2 33 12 33 5 0 7 -6 3 -12 -4 -7 9 3 28 22 42 42 88 76 100 73 4 -2 8
2 8 7 0 6 5 10 11 10 6 0 25 10 42 22 18 13 34 22 37 20 3 -1 23 5 45 15 48
20 41 18 88 27 20 5 40 13 44 19 5 8 8 8 10 0 3 -8 12 -9 26 -4z"/>
</g>
</svg>
